<svg id="Layer_1" data-name="Layer 1" xmlns="http://www.w3.org/2000/svg" viewBox="0 0 137 110"><defs><style>.cls-1{fill:#fff;}.cls-2{fill:#d2ac2a;}</style></defs><path class="cls-1" d="M68.77,65.87A27.88,27.88,0,1,1,96.64,38,27.9,27.9,0,0,1,68.77,65.87Zm0-51.43A23.56,23.56,0,1,0,92.33,38,23.58,23.58,0,0,0,68.77,14.44Z"/><path class="cls-1" d="M22.51,84h5.36a4.34,4.34,0,0,1-1.74,2.27,5.92,5.92,0,0,1-3.29.87,6,6,0,0,1-4.34-1.59,6,6,0,0,1,0-8.21,5.48,5.48,0,0,1,4.11-1.64,6,6,0,0,1,2.79.67,4.64,4.64,0,0,1,1.89,1.74l.06.11,3.22-1.86-.07-.11a8.59,8.59,0,0,0-3.28-3.07,9.52,9.52,0,0,0-4.59-1.14,9.43,9.43,0,0,0-6.73,16.07,9.54,9.54,0,0,0,6.94,2.71,8.84,8.84,0,0,0,6.39-2.4,8.38,8.38,0,0,0,2.49-6.27v-1.5H22.51Z"/><path class="cls-1" d="M42.32,84.53a3.22,3.22,0,0,1-.72,2.27,2.58,2.58,0,0,1-2,.76,2.39,2.39,0,0,1-1.76-.65,2.55,2.55,0,0,1-.64-1.85V77.53H33.71v7.94a5.57,5.57,0,0,0,1.39,4,4.79,4.79,0,0,0,3.55,1.43,4.45,4.45,0,0,0,3.67-1.52V90.5h3.53v-13H42.32Z"/><rect class="cls-1" x="48.6" y="71.68" width="3.53" height="18.83"/><path class="cls-1" d="M57.31,73.33a5.42,5.42,0,0,0-1.55,4.2H53.92v3.4h1.84V90.5h3.53V80.93H62v-3.4h-2.7A2,2,0,0,1,59.83,76a2.61,2.61,0,0,1,2-.5H62v-3.4h-.12A6,6,0,0,0,57.31,73.33Z"/><path class="cls-1" d="M78.31,84h5.35a4.37,4.37,0,0,1-1.73,2.27,6.71,6.71,0,0,1-7.64-.72,6,6,0,0,1,0-8.21,5.5,5.5,0,0,1,4.11-1.64,6,6,0,0,1,2.79.67,4.64,4.64,0,0,1,1.89,1.74l.06.11,3.11-1.8.11-.06-.07-.11A8.56,8.56,0,0,0,83,73.22a9.55,9.55,0,0,0-4.59-1.14,9.31,9.31,0,0,0-9.47,9.42,9.06,9.06,0,0,0,2.74,6.65,9.52,9.52,0,0,0,6.93,2.71,8.88,8.88,0,0,0,6.4-2.4,8.38,8.38,0,0,0,2.48-6.27v-1.5H78.31Z"/><path class="cls-1" d="M95.77,77.18a6.8,6.8,0,1,0,4.87,2A6.69,6.69,0,0,0,95.77,77.18Zm2.38,9.27a3.28,3.28,0,0,1-2.38,1,3.21,3.21,0,0,1-2.38-1,3.63,3.63,0,0,1,0-4.86,3.44,3.44,0,0,1,4.77,0,3.56,3.56,0,0,1,0,4.86Z"/><rect class="cls-1" x="104.71" y="71.68" width="3.53" height="18.83"/><path class="cls-1" d="M120.64,72.44v6.38a5.12,5.12,0,0,0-4-1.64,6,6,0,0,0-4.5,2,7.31,7.31,0,0,0,0,9.71,6,6,0,0,0,4.49,2,5.12,5.12,0,0,0,4-1.64V90.5h3.53V72.44Zm-3.39,15A3.28,3.28,0,0,1,113.83,84a3.42,3.42,0,0,1,1-2.49,3.35,3.35,0,0,1,2.46-1,3.25,3.25,0,0,1,2.43,1,3.37,3.37,0,0,1,1,2.49,3.45,3.45,0,0,1-1,2.51A3.31,3.31,0,0,1,117.25,87.48Z"/><path class="cls-2" d="M100.55,98.62H99.4l-1.09-1.87H97.5v1.87H96.44V93.23H98.6A1.79,1.79,0,0,1,100.39,95a1.66,1.66,0,0,1-.28.93,1.76,1.76,0,0,1-.76.64Zm-2-4.39H97.5v1.59h1.1a.65.65,0,0,0,.51-.24.82.82,0,0,0,0-1.12A.64.64,0,0,0,98.6,94.23Z"/><path class="cls-2" d="M104.68,97.11h-2.91a1,1,0,0,0,1.09.72,1,1,0,0,0,.86-.38l.8.46a1.91,1.91,0,0,1-1.68.82,2.05,2.05,0,0,1-1.53-.58,1.94,1.94,0,0,1-.58-1.45,2,2,0,0,1,.57-1.45,1.94,1.94,0,0,1,1.46-.59,1.83,1.83,0,0,1,1.4.59,2,2,0,0,1,.55,1.45A3.58,3.58,0,0,1,104.68,97.11Zm-2.92-.77h2a1,1,0,0,0-.34-.58.94.94,0,0,0-.62-.2,1.1,1.1,0,0,0-.66.2A1,1,0,0,0,101.76,96.34Z"/><path class="cls-2" d="M107.36,93.12v1c-.54,0-.81.18-.81.65v0h.81v1h-.81v2.89h-1V95.73H105v-1h.55v0a1.63,1.63,0,0,1,.46-1.24A1.8,1.8,0,0,1,107.36,93.12Z"/><path class="cls-2" d="M108.32,94.31a.61.61,0,0,1-.61-.61.6.6,0,0,1,.18-.43.6.6,0,0,1,.86,0,.57.57,0,0,1,.19.43.56.56,0,0,1-.19.43A.58.58,0,0,1,108.32,94.31Zm.5,4.31h-1V94.77h1Z"/><path class="cls-2" d="M111.87,94.66a1.38,1.38,0,0,1,1,.43,1.61,1.61,0,0,1,.42,1.17v2.36h-1V96.38a.82.82,0,0,0-.2-.58.75.75,0,0,0-.56-.21.81.81,0,0,0-.62.24,1,1,0,0,0-.23.71v2.08h-1V94.77h1v.43A1.28,1.28,0,0,1,111.87,94.66Z"/><path class="cls-2" d="M117.92,97.11H115a1,1,0,0,0,1.09.72,1,1,0,0,0,.86-.38l.8.46a1.91,1.91,0,0,1-1.68.82,2.05,2.05,0,0,1-1.53-.58,2.12,2.12,0,0,1,0-2.9,2,2,0,0,1,1.47-.59,1.81,1.81,0,0,1,1.39.59A2,2,0,0,1,118,96.7,3.58,3.58,0,0,1,117.92,97.11ZM115,96.34h2a1,1,0,0,0-.34-.58.93.93,0,0,0-.61-.2,1.11,1.11,0,0,0-.67.2A1,1,0,0,0,115,96.34Z"/><path class="cls-2" d="M119.64,94.77v.67a1.05,1.05,0,0,1,.45-.56,1.43,1.43,0,0,1,.72-.18v1.11A1.13,1.13,0,0,0,120,96a.89.89,0,0,0-.35.79v1.84h-1V94.77Z"/><path class="cls-2" d="M123.13,97.36l.86-2.59h1.06l-1.4,3.85a2.54,2.54,0,0,1-.8,1.21,1.8,1.8,0,0,1-1.24.33v-.92a.93.93,0,0,0,.63-.17,1.17,1.17,0,0,0,.38-.57L121,94.77h1.09Z"/><path class="cls-2" d="M82.69,36.45a6.58,6.58,0,0,0,2.78-2.36,6,6,0,0,0,1-3.42,6.57,6.57,0,0,0-6.61-6.57H72V38.8A9.23,9.23,0,0,0,68.72,38a10.45,10.45,0,0,0,.45-3.14V33.28h-10v3.46h6a5,5,0,0,1-1,1.89,4.91,4.91,0,0,1-1,.88,5.53,5.53,0,0,1-1.58.71,7.68,7.68,0,0,1-2.16.29,6.75,6.75,0,0,1-4.94-1.82A6.32,6.32,0,0,1,52.67,34a6.33,6.33,0,0,1,1.82-4.67,6.2,6.2,0,0,1,4.67-1.87,6.7,6.7,0,0,1,3.18.76,5.2,5.2,0,0,1,2.15,2l3.35-1.93A9.36,9.36,0,0,0,64.24,25a10.33,10.33,0,0,0-5-1.25A10.21,10.21,0,0,0,48.79,34a10,10,0,0,0,3,7.32,10.48,10.48,0,0,0,7.63,3,11.19,11.19,0,0,0,3.51-.53l.2-.06a9.13,9.13,0,0,0,3.32-2l.19-.21a7.14,7.14,0,0,1,1.24-.12A5.7,5.7,0,0,1,72,42.93s.11.09.15.14a5.3,5.3,0,0,1,.71.87,5.92,5.92,0,0,1,.94,3.37,5.77,5.77,0,0,1-1.67,4.23,6.11,6.11,0,0,1-4.48,1.65,6,6,0,0,1-3.4-.9,4.55,4.55,0,0,1-1.86-2.53h5.46V46.62h-9V48a8.32,8.32,0,0,0,2.48,6.26,8.79,8.79,0,0,0,6.38,2.39A9.51,9.51,0,0,0,74.58,54a9.06,9.06,0,0,0,2.73-6.65,9.25,9.25,0,0,0-1.42-5.06v-5.2h3l4,6.89h4.22Zm-.88-3.7a2.48,2.48,0,0,1-1.9.87h-4V27.75h4a2.53,2.53,0,0,1,1.9.85,3.09,3.09,0,0,1,0,4.15Z"/><path class="cls-2" d="M67.65,56.72a8.91,8.91,0,0,1-6.43-2.41A8.42,8.42,0,0,1,58.73,48V46.56h9.16v3.26H62.46a4.35,4.35,0,0,0,1.8,2.41,6.83,6.83,0,0,0,7.8-.74,5.67,5.67,0,0,0,1.66-4.18A5.92,5.92,0,0,0,72.79,44a5.26,5.26,0,0,0-.7-.86L72,43,71.93,43a5.62,5.62,0,0,0-4.05-1.55,6.52,6.52,0,0,0-1.21.12l-.07.07-.11.12a9.14,9.14,0,0,1-3.34,2.06l-.12,0-.08,0a11.55,11.55,0,0,1-3.53.53,10.52,10.52,0,0,1-7.67-3,10,10,0,0,1-3-7.36,10.26,10.26,0,0,1,10.46-10.4,10.56,10.56,0,0,1,5.08,1.25,9.49,9.49,0,0,1,3.62,3.4l0,.05,0,0-3.4,2,0,0a5.21,5.21,0,0,0-2.13-2,6.58,6.58,0,0,0-3.15-.76,6.18,6.18,0,0,0-4.63,1.85A6.3,6.3,0,0,0,52.73,34a6.28,6.28,0,0,0,1.83,4.61,6.7,6.7,0,0,0,4.89,1.8,7.87,7.87,0,0,0,2.15-.29,5.5,5.5,0,0,0,1.55-.7,4.86,4.86,0,0,0,1-.87,5.24,5.24,0,0,0,1-1.79h-6V33.22H69.23v1.59a11,11,0,0,1-.42,3.09,9.33,9.33,0,0,1,3.11.8V24h8a6.66,6.66,0,0,1,6.67,6.64,6.15,6.15,0,0,1-1.06,3.45,6.6,6.6,0,0,1-2.74,2.36L87.19,44H82.83l0,0-4-6.86H76v5.13a9.31,9.31,0,0,1,1.42,5.07A9.11,9.11,0,0,1,74.62,54,9.56,9.56,0,0,1,67.65,56.72Zm-8.79-10V48a8.26,8.26,0,0,0,2.45,6.21,8.76,8.76,0,0,0,6.34,2.38,9.46,9.46,0,0,0,6.89-2.69,9,9,0,0,0,2.71-6.6,9.22,9.22,0,0,0-1.41-5V37H78.9l0,0,4,6.85H87L82.6,36.43l.07,0a6.53,6.53,0,0,0,2.75-2.35,6,6,0,0,0,1-3.38,6.52,6.52,0,0,0-6.55-6.51H72V38.89l-.09,0A9.22,9.22,0,0,0,68.72,38h-.08l0-.07a10.91,10.91,0,0,0,.44-3.13V33.34H59.28v3.34h6l0,.08a5.29,5.29,0,0,1-2.07,2.81,5.78,5.78,0,0,1-1.59.71,8,8,0,0,1-2.18.29,6.85,6.85,0,0,1-5-1.83A6.43,6.43,0,0,1,52.61,34a6.45,6.45,0,0,1,1.83-4.72,6.34,6.34,0,0,1,4.72-1.88,6.71,6.71,0,0,1,3.21.77,5.35,5.35,0,0,1,2.14,1.95l3.24-1.86A9.38,9.38,0,0,0,64.21,25a10.43,10.43,0,0,0-5-1.24A10.16,10.16,0,0,0,48.85,34a9.93,9.93,0,0,0,3,7.27,10.4,10.4,0,0,0,7.58,3,11.24,11.24,0,0,0,3.49-.53l.09,0,.11,0a9,9,0,0,0,3.3-2l.1-.11.08-.09h0a7.14,7.14,0,0,1,1.26-.12A5.78,5.78,0,0,1,72,42.89l.07.06.09.07a6,6,0,0,1,.72.88,6.16,6.16,0,0,1,.94,3.41,5.82,5.82,0,0,1-1.69,4.27,7,7,0,0,1-8,.76,4.55,4.55,0,0,1-1.87-2.56l0-.08h5.48v-3Zm21-13H75.83v-6h4.08a2.59,2.59,0,0,1,2,.87,3,3,0,0,1,.81,2.11,3,3,0,0,1-.81,2.13h0A2.58,2.58,0,0,1,79.91,33.68Zm-4-.12h4a2.46,2.46,0,0,0,1.86-.85h0a3.07,3.07,0,0,0,0-4.07,2.48,2.48,0,0,0-1.86-.83H76Z"/></svg>